<svg width="182" height="140" viewBox="0 0 182 140" fill="none" xmlns="http://www.w3.org/2000/svg">
<path d="M46.6797 139.941C31.5104 139.941 19.9219 133.952 11.9141 121.973C3.97135 109.928 0 92.5781 0 69.9219C0 47.7214 3.8737 30.5339 11.6211 18.3594C19.4336 6.11979 31.1198 0 46.6797 0C62.1745 0 73.8281 6.08724 81.6406 18.2617C89.4531 30.3711 93.3594 47.5911 93.3594 69.9219C93.3594 92.6432 89.3555 109.993 81.3477 121.973C73.3398 133.952 61.7839 139.941 46.6797 139.941ZM46.4844 117.871C53.4505 117.871 57.8451 112.337 59.668 101.27C61.4909 90.2018 62.4023 79.7526 62.4023 69.9219C62.4023 54.1667 61.1654 42.2526 58.6914 34.1797C56.2826 26.0417 52.2786 21.9727 46.6797 21.9727C41.0156 21.9727 36.9792 26.1393 34.5703 34.4727C32.1615 42.7409 30.957 54.5898 30.957 70.0195C30.957 85.7747 32.1615 97.6888 34.5703 105.762C37.0443 113.835 41.0156 117.871 46.4844 117.871Z" fill="white"/>
<path d="M114.609 138.184V116.406H133.359V24.1211H113.438V2.34375H163.242V116.406H181.016V138.184H114.609Z" fill="white"/>
</svg>
