<svg width="200" height="141" viewBox="0 0 200 141" fill="none" xmlns="http://www.w3.org/2000/svg">
<path d="M46.6797 140.883C31.5104 140.883 19.9219 134.893 11.9141 122.914C3.97135 110.87 0 93.5195 0 70.8633C0 48.6628 3.8737 31.4753 11.6211 19.3008C19.4336 7.0612 31.1198 0.941406 46.6797 0.941406C62.1745 0.941406 73.8281 7.02865 81.6406 19.2031C89.4531 31.3125 93.3594 48.5326 93.3594 70.8633C93.3594 93.5846 89.3555 110.935 81.3477 122.914C73.3398 134.893 61.7839 140.883 46.6797 140.883ZM46.4844 118.812C53.4505 118.812 57.8451 113.279 59.668 102.211C61.4909 91.1432 62.4023 80.694 62.4023 70.8633C62.4023 55.1081 61.1654 43.194 58.6914 35.1211C56.2826 26.9831 52.2786 22.9141 46.6797 22.9141C41.0156 22.9141 36.9792 27.0807 34.5703 35.4141C32.1615 43.6823 30.957 55.5312 30.957 70.9609C30.957 86.7161 32.1615 98.6302 34.5703 106.703C37.0443 114.776 41.0156 118.812 46.4844 118.812Z" fill="white"/>
<path d="M199.609 99.6719L198.438 139.125H111.426C111.426 127.276 112.37 118.096 114.258 111.586C116.211 105.076 119.368 98.7604 123.73 92.6406C128.158 86.5208 134.31 79.8151 142.188 72.5234C152.539 63.0182 159.342 56.0521 162.598 51.625C165.918 47.1328 167.578 42.0872 167.578 36.4883C167.578 32.3216 166.341 28.9036 163.867 26.2344C161.393 23.5 158.301 22.1328 154.59 22.1328C149.186 22.1328 145.182 24.3789 142.578 28.8711C140.039 33.2982 138.574 40.5573 138.184 50.6484L113.281 49.4766C113.281 36.3906 115.234 26.5273 119.141 19.8867C123.047 13.2461 128.353 8.42839 135.059 5.43359C141.764 2.4388 149.056 0.941406 156.934 0.941406C169.889 0.941406 180.046 4.52214 187.402 11.6836C194.824 18.8451 198.535 27.7643 198.535 38.4414C198.535 44.1706 197.396 49.4766 195.117 54.3594C192.904 59.1771 190.072 63.2461 186.621 66.5664C183.236 69.8216 177.214 74.5417 168.555 80.7266C155.534 90.0365 147.363 97.4258 144.043 102.895C140.723 108.363 138.77 113.181 138.184 117.348H177.734V99.6719H199.609Z" fill="white"/>
</svg>
