<svg width="202" height="141" viewBox="0 0 202 141" fill="none" xmlns="http://www.w3.org/2000/svg">
<path d="M46.6797 140.824C31.5104 140.824 19.9219 134.835 11.9141 122.855C3.97135 110.811 0 93.4609 0 70.8047C0 48.6042 3.8737 31.4167 11.6211 19.2422C19.4336 7.0026 31.1198 0.882812 46.6797 0.882812C62.1745 0.882812 73.8281 6.97005 81.6406 19.1445C89.4531 31.2539 93.3594 48.474 93.3594 70.8047C93.3594 93.526 89.3555 110.876 81.3477 122.855C73.3398 134.835 61.7839 140.824 46.6797 140.824ZM46.4844 118.754C53.4505 118.754 57.8451 113.22 59.668 102.152C61.4909 91.0846 62.4023 80.6354 62.4023 70.8047C62.4023 55.0495 61.1654 43.1354 58.6914 35.0625C56.2826 26.9245 52.2786 22.8555 46.6797 22.8555C41.0156 22.8555 36.9792 27.0221 34.5703 35.3555C32.1615 43.6237 30.957 55.4727 30.957 70.9023C30.957 86.6576 32.1615 98.5716 34.5703 106.645C37.0443 114.717 41.0156 118.754 46.4844 118.754Z" fill="white"/>
<path d="M108.984 97.5625L135.156 95.4141C135.482 111.365 141.471 119.34 153.125 119.34C158.398 119.34 162.695 117.419 166.016 113.578C169.336 109.737 170.996 104.854 170.996 98.9297C170.996 93.1354 169.368 88.3177 166.113 84.4766C162.858 80.5703 157.975 78.6172 151.465 78.6172C149.902 78.6172 147.884 78.6823 145.41 78.8125V55.9609C153.158 55.9609 158.789 54.2357 162.305 50.7852C165.82 47.2695 167.578 43.0052 167.578 37.9922C167.578 33.5651 166.243 29.9518 163.574 27.1523C160.905 24.2878 157.422 22.8555 153.125 22.8555C143.49 22.8555 138.672 28.8451 138.672 40.8242L113.184 38.8711C113.704 26.5664 117.806 17.1589 125.488 10.6484C133.236 4.13802 143.034 0.882812 154.883 0.882812C168.229 0.882812 178.581 4.07292 185.938 10.4531C193.359 16.8333 197.07 25.5573 197.07 36.625C197.07 51.013 190.299 61.2995 176.758 67.4844C193.555 72.9531 201.953 83.7604 201.953 99.9062C201.953 112.732 197.624 122.758 188.965 129.984C180.306 137.211 169.303 140.824 155.957 140.824C126.855 140.824 111.198 126.404 108.984 97.5625Z" fill="white"/>
</svg>
