<svg width="48" height="48" viewBox="0 0 48 48" fill="none" xmlns="http://www.w3.org/2000/svg">
<path fill-rule="evenodd" clip-rule="evenodd" d="M24 48C37.2548 48 48 37.2548 48 24C48 10.7452 37.2548 0 24 0C10.7452 0 0 10.7452 0 24C0 37.2548 10.7452 48 24 48ZM26.1349 16.078C25.2078 15.3054 23.8611 15.3054 22.9339 16.078L12.3273 24.9169C11.2666 25.8008 11.1233 27.3772 12.0072 28.4379C12.8911 29.4986 14.4675 29.6419 15.5282 28.758L24.5344 21.2528L33.5406 28.758C34.6013 29.6419 36.1777 29.4986 37.0616 28.4379C37.9455 27.3772 37.8022 25.8008 36.7415 24.9169L26.1349 16.078Z" fill="white"/>
</svg>
