<svg width="64" height="48" viewBox="0 0 64 48" fill="none" xmlns="http://www.w3.org/2000/svg">
<path fill-rule="evenodd" clip-rule="evenodd" d="M64 39.5515C64 43.9413 60.4183 47.5 56 47.5H8C3.58172 47.5 0 43.9413 0 39.5515V8.44853C0 6.61141 0.62729 4.91986 1.68067 3.57378C1.75135 3.67478 1.84202 3.76431 1.95136 3.83606L31.4514 23.1944C31.7845 23.413 32.2155 23.413 32.5486 23.1944L62.0486 3.83606C62.158 3.76431 62.2486 3.67477 62.3193 3.57378C63.3727 4.91985 64 6.61141 64 8.44853V39.5515ZM3.07716 2.18266C4.43462 1.12834 6.14346 0.5 8 0.5H56C57.8565 0.5 59.5654 1.12834 60.9228 2.18265L32 21.1622L3.07716 2.18266Z" fill="#85CDAC"/>
</svg>
