<svg width="248" height="246" viewBox="0 0 248 246" fill="none" xmlns="http://www.w3.org/2000/svg">
<path d="M217.643 245.825L182.914 211.199H140.807C126.102 211.199 114.182 199.313 114.182 184.652V139.638C114.182 124.977 126.102 113.092 140.807 113.092H220.681C235.386 113.092 247.306 124.977 247.306 139.638V184.652C247.306 199.313 235.386 211.199 220.681 211.199H217.643V245.825Z" fill="#85CDAC"/>
<path fill-rule="evenodd" clip-rule="evenodd" d="M103.72 177.795L48.1551 233.197V177.795H27.3183C12.6137 177.795 0.693359 165.91 0.693359 151.249V47.3708C0.693359 32.7095 12.6137 20.8242 27.3182 20.8242H187.068C201.772 20.8242 213.692 32.7095 213.692 47.3708L213.692 107.101H133.818C119.113 107.101 107.193 118.986 107.193 133.647V175.818L103.72 177.795Z" fill="#85CDAC"/>
</svg>
