<svg width="59" height="60" viewBox="0 0 59 60" fill="none" xmlns="http://www.w3.org/2000/svg">
<path d="M58.314 52.6471C58.314 52.6471 54.4603 56.4535 53.5159 57.5694C51.9775 59.2204 50.1649 60 47.7887 60C47.5603 60 47.3165 60 47.0881 59.9847C42.5642 59.6943 38.3602 57.921 35.2072 56.4076C26.5859 52.2191 19.0157 46.2726 12.7249 38.7363C7.53079 32.4535 4.05792 26.6446 1.7579 20.4076C0.34133 16.6013 -0.176556 13.6357 0.051923 10.8382C0.204242 9.04968 0.889678 7.56688 2.15393 6.29809L7.34801 1.08535C8.09437 0.382166 8.88643 0 9.66326 0C10.6229 0 11.3997 0.580892 11.8871 1.07006C11.9023 1.08535 11.9176 1.10064 11.9328 1.11592C12.862 1.98726 13.7454 2.88917 14.6746 3.85223C15.1467 4.3414 15.6342 4.83057 16.1216 5.33503L20.2799 9.50828C21.8945 11.1287 21.8945 12.6268 20.2799 14.2471C19.8382 14.6904 19.4117 15.1338 18.97 15.5618C17.6905 16.8764 18.6956 15.8677 17.3704 17.0601C17.3399 17.0906 17.3095 17.1059 17.2942 17.1365C15.9843 18.4512 16.228 19.7352 16.5022 20.6066C16.5174 20.6524 16.5326 20.6983 16.5479 20.7441C17.6293 23.3734 19.1525 25.8499 21.4678 28.8002L21.483 28.8155C25.687 34.0129 30.1195 38.0639 35.009 41.1671C35.6335 41.5645 36.2732 41.8855 36.8825 42.1913C37.4308 42.4664 37.9487 42.7263 38.3904 43.0015C38.4514 43.032 38.5123 43.0779 38.5732 43.1085C39.0911 43.3683 39.5785 43.4906 40.0812 43.4906C41.3454 43.4906 42.1375 42.6957 42.3964 42.4359L45.3821 39.4395C45.9 38.9197 46.7225 38.293 47.6821 38.293C48.6265 38.293 49.4033 38.8892 49.8755 39.4089C49.8907 39.4242 49.8907 39.4242 49.906 39.4395L58.2987 47.8624C59.8676 49.4217 58.314 52.6471 58.314 52.6471Z" fill="#85CDAC"/>
</svg>
