<svg width="235" height="246" viewBox="0 0 235 246" fill="none" xmlns="http://www.w3.org/2000/svg">
<path d="M33.0139 76.4531L33.0139 48.6387M33.0139 48.6387L33.0139 20.8242M33.0139 48.6387L5.19336 48.6387M33.0139 48.6387L60.8343 48.6387" stroke="#85CDAC" stroke-width="10" stroke-linecap="round" stroke-linejoin="round"/>
<path d="M208.245 139.958C203.211 144.99 195.05 144.99 190.017 139.958L135.331 85.2837C130.297 80.2511 130.297 72.0917 135.331 67.0591L158.117 44.2783C163.15 39.2458 171.311 39.2458 176.345 44.2783L231.031 98.9522C236.065 103.985 236.065 112.144 231.031 117.177L208.245 139.958Z" fill="#85CDAC"/>
<path fill-rule="evenodd" clip-rule="evenodd" d="M124.885 85.9111L129.442 90.4673L184.128 145.141L188.685 149.697L167.29 209.979C165.014 216.391 159.534 221.135 152.86 222.469L35.746 245.887L87.4056 194.239C89.3584 192.286 89.3587 189.12 87.4063 187.168C85.4539 185.215 82.2881 185.214 80.3353 187.167L28.4619 239.029L49.8914 120.218C51.1693 113.134 56.2791 107.346 63.1519 105.198L124.885 85.9111ZM131.026 141.27C120.959 131.205 104.636 131.205 94.5688 141.27C84.5014 151.335 84.5014 167.654 94.5688 177.719C104.636 187.785 120.959 187.785 131.026 177.719C141.093 167.654 141.093 151.335 131.026 141.27Z" fill="#85CDAC"/>
</svg>
